<svg width="1512" height="710" viewBox="0 0 1512 710" fill="none" xmlns="http://www.w3.org/2000/svg">
<path d="M699.786 374.659H690.217V396H678.205V337.703H699.866C706.753 337.703 712.065 339.238 715.802 342.308C719.539 345.377 721.407 349.715 721.407 355.32C721.407 359.298 720.54 362.621 718.805 365.29C717.096 367.933 714.494 370.041 710.997 371.616L723.609 395.439V396H710.717L699.786 374.659ZM690.217 364.93H699.906C702.923 364.93 705.258 364.169 706.913 362.647C708.568 361.099 709.396 358.977 709.396 356.281C709.396 353.532 708.608 351.37 707.033 349.795C705.485 348.22 703.096 347.433 699.866 347.433H690.217V364.93ZM765.65 370.735H742.588V386.351H769.654V396H730.576V337.703H769.574V347.433H742.588V361.326H765.65V370.735ZM822.466 376.581C822.012 382.854 819.69 387.792 815.499 391.396C811.335 394.999 805.836 396.801 799.003 396.801C791.529 396.801 785.643 394.292 781.346 389.273C777.075 384.229 774.939 377.315 774.939 368.533V364.97C774.939 359.364 775.927 354.426 777.902 350.155C779.878 345.884 782.694 342.615 786.351 340.346C790.034 338.05 794.305 336.902 799.163 336.902C805.89 336.902 811.308 338.704 815.419 342.308C819.53 345.911 821.905 350.969 822.546 357.482H810.534C810.241 353.719 809.186 350.996 807.371 349.314C805.583 347.606 802.847 346.752 799.163 346.752C795.159 346.752 792.156 348.193 790.154 351.076C788.179 353.932 787.165 358.377 787.111 364.409V368.813C787.111 375.113 788.059 379.717 789.954 382.627C791.876 385.536 794.892 386.991 799.003 386.991C802.713 386.991 805.476 386.15 807.291 384.469C809.133 382.76 810.187 380.131 810.454 376.581H822.466ZM878.24 368.173C878.24 373.912 877.226 378.943 875.197 383.268C873.169 387.592 870.259 390.928 866.469 393.277C862.705 395.626 858.381 396.801 853.496 396.801C848.665 396.801 844.354 395.64 840.563 393.317C836.773 390.995 833.837 387.685 831.755 383.388C829.673 379.063 828.618 374.099 828.592 368.493V365.61C828.592 359.871 829.619 354.826 831.675 350.476C833.757 346.098 836.68 342.748 840.443 340.426C844.234 338.077 848.558 336.902 853.416 336.902C858.274 336.902 862.585 338.077 866.349 340.426C870.139 342.748 873.062 346.098 875.117 350.476C877.199 354.826 878.24 359.858 878.24 365.57V368.173ZM866.068 365.53C866.068 359.418 864.974 354.773 862.785 351.597C860.596 348.42 857.473 346.832 853.416 346.832C849.385 346.832 846.276 348.407 844.087 351.557C841.898 354.68 840.79 359.271 840.764 365.33V368.173C840.764 374.125 841.858 378.743 844.047 382.026C846.236 385.31 849.385 386.951 853.496 386.951C857.527 386.951 860.623 385.376 862.785 382.227C864.947 379.05 866.042 374.432 866.068 368.373V365.53ZM886.969 396V337.703H907.389C914.462 337.703 919.827 339.064 923.484 341.787C927.141 344.483 928.97 348.447 928.97 353.679C928.97 356.535 928.236 359.057 926.768 361.246C925.299 363.408 923.257 364.996 920.642 366.011C923.631 366.758 925.98 368.266 927.688 370.535C929.424 372.804 930.291 375.58 930.291 378.863C930.291 384.469 928.503 388.713 924.926 391.596C921.349 394.479 916.251 395.947 909.631 396H886.969ZM898.98 370.615V386.351H909.271C912.1 386.351 914.302 385.683 915.877 384.349C917.479 382.987 918.279 381.119 918.279 378.743C918.279 373.405 915.517 370.695 909.991 370.615H898.98ZM898.98 362.127H907.869C913.928 362.02 916.958 359.604 916.958 354.88C916.958 352.237 916.184 350.342 914.636 349.194C913.114 348.02 910.699 347.433 907.389 347.433H898.98V362.127ZM987.227 368.173C987.227 373.912 986.212 378.943 984.184 383.268C982.155 387.592 979.245 390.928 975.455 393.277C971.691 395.626 967.367 396.801 962.482 396.801C957.651 396.801 953.34 395.64 949.55 393.317C945.759 390.995 942.823 387.685 940.741 383.388C938.659 379.063 937.605 374.099 937.578 368.493V365.61C937.578 359.871 938.606 354.826 940.661 350.476C942.743 346.098 945.666 342.748 949.43 340.426C953.22 338.077 957.544 336.902 962.402 336.902C967.26 336.902 971.571 338.077 975.335 340.426C979.125 342.748 982.048 346.098 984.104 350.476C986.186 354.826 987.227 359.858 987.227 365.57V368.173ZM975.055 365.53C975.055 359.418 973.96 354.773 971.771 351.597C969.583 348.42 966.46 346.832 962.402 346.832C958.372 346.832 955.262 348.407 953.073 351.557C950.884 354.68 949.777 359.271 949.75 365.33V368.173C949.75 374.125 950.844 378.743 953.033 382.026C955.222 385.31 958.372 386.951 962.482 386.951C966.513 386.951 969.609 385.376 971.771 382.227C973.934 379.05 975.028 374.432 975.055 368.373V365.53ZM1043.84 368.173C1043.84 373.912 1042.83 378.943 1040.8 383.268C1038.77 387.592 1035.86 390.928 1032.07 393.277C1028.31 395.626 1023.98 396.801 1019.1 396.801C1014.27 396.801 1009.96 395.64 1006.17 393.317C1002.37 390.995 999.438 387.685 997.356 383.388C995.274 379.063 994.22 374.099 994.193 368.493V365.61C994.193 359.871 995.221 354.826 997.276 350.476C999.358 346.098 1002.28 342.748 1006.04 340.426C1009.84 338.077 1014.16 336.902 1019.02 336.902C1023.88 336.902 1028.19 338.077 1031.95 340.426C1035.74 342.748 1038.66 346.098 1040.72 350.476C1042.8 354.826 1043.84 359.858 1043.84 365.57V368.173ZM1031.67 365.53C1031.67 359.418 1030.58 354.773 1028.39 351.597C1026.2 348.42 1023.07 346.832 1019.02 346.832C1014.99 346.832 1011.88 348.407 1009.69 351.557C1007.5 354.68 1006.39 359.271 1006.37 365.33V368.173C1006.37 374.125 1007.46 378.743 1009.65 382.026C1011.84 385.31 1014.99 386.951 1019.1 386.951C1023.13 386.951 1026.22 385.376 1028.39 382.227C1030.55 379.05 1031.64 374.432 1031.67 368.373V365.53ZM1070.83 372.617L1064.58 379.344V396H1052.57V337.703H1064.58V364.129L1069.87 356.882L1084.72 337.703H1099.5L1078.8 363.608L1100.1 396H1085.8L1070.83 372.617Z" fill="white"/>
<ellipse cx="487.5" cy="354.5" rx="67.5" ry="66.5" fill="white"/>
<ellipse cx="577.5" cy="354.5" rx="67.5" ry="66.5" fill="#E34D4D"/>
</svg>
