<svg width="720" height="133" viewBox="0 0 720 133" fill="none" xmlns="http://www.w3.org/2000/svg">
<path d="M279.786 86.6592H270.217V108H258.205V49.7031H279.866C286.753 49.7031 292.065 51.238 295.802 54.3076C299.539 57.3773 301.407 61.7148 301.407 67.3203C301.407 71.2975 300.54 74.6208 298.805 77.29C297.096 79.9326 294.494 82.0413 290.997 83.6162L303.609 107.439V108H290.717L279.786 86.6592ZM270.217 76.9297H279.906C282.923 76.9297 285.258 76.1689 286.913 74.6475C288.568 73.0993 289.396 70.9772 289.396 68.2812C289.396 65.5319 288.608 63.3698 287.033 61.7949C285.485 60.2201 283.096 59.4326 279.866 59.4326H270.217V76.9297ZM345.65 82.7354H322.588V98.3506H349.654V108H310.576V49.7031H349.574V59.4326H322.588V73.3262H345.65V82.7354ZM402.466 88.5811C402.012 94.8538 399.69 99.792 395.499 103.396C391.335 106.999 385.836 108.801 379.003 108.801C371.529 108.801 365.643 106.292 361.346 101.273C357.075 96.2285 354.939 89.3151 354.939 80.5332V76.9697C354.939 71.3643 355.927 66.4261 357.902 62.1553C359.878 57.8844 362.694 54.6146 366.351 52.3457C370.034 50.0501 374.305 48.9023 379.163 48.9023C385.89 48.9023 391.308 50.7041 395.419 54.3076C399.53 57.9111 401.905 62.9694 402.546 69.4824H390.534C390.241 65.7188 389.186 62.9961 387.371 61.3145C385.583 59.6061 382.847 58.752 379.163 58.752C375.159 58.752 372.156 60.1934 370.154 63.0762C368.179 65.9323 367.165 70.3766 367.111 76.4092V80.8135C367.111 87.113 368.059 91.7174 369.954 94.627C371.876 97.5365 374.892 98.9912 379.003 98.9912C382.713 98.9912 385.476 98.1504 387.291 96.4688C389.133 94.7604 390.187 92.1312 390.454 88.5811H402.466ZM458.24 80.1729C458.24 85.9118 457.226 90.9434 455.197 95.2676C453.169 99.5918 450.259 102.928 446.469 105.277C442.705 107.626 438.381 108.801 433.496 108.801C428.665 108.801 424.354 107.64 420.563 105.317C416.773 102.995 413.837 99.6852 411.755 95.3877C409.673 91.0635 408.618 86.0986 408.592 80.4932V77.6104C408.592 71.8714 409.619 66.8265 411.675 62.4756C413.757 58.098 416.68 54.748 420.443 52.4258C424.234 50.0768 428.558 48.9023 433.416 48.9023C438.274 48.9023 442.585 50.0768 446.349 52.4258C450.139 54.748 453.062 58.098 455.117 62.4756C457.199 66.8265 458.24 71.8581 458.24 77.5703V80.1729ZM446.068 77.5303C446.068 71.4176 444.974 66.7731 442.785 63.5967C440.596 60.4202 437.473 58.832 433.416 58.832C429.385 58.832 426.276 60.4069 424.087 63.5566C421.898 66.6797 420.79 71.2708 420.764 77.3301V80.1729C420.764 86.1253 421.858 90.7432 424.047 94.0264C426.236 97.3096 429.385 98.9512 433.496 98.9512C437.527 98.9512 440.623 97.3763 442.785 94.2266C444.947 91.0501 446.042 86.4323 446.068 80.373V77.5303ZM466.969 108V49.7031H487.389C494.462 49.7031 499.827 51.0645 503.484 53.7871C507.141 56.4831 508.97 60.4469 508.97 65.6787C508.97 68.5348 508.236 71.0573 506.768 73.2461C505.299 75.4082 503.257 76.9964 500.642 78.0107C503.631 78.7581 505.98 80.2663 507.688 82.5352C509.424 84.804 510.291 87.5801 510.291 90.8633C510.291 96.4688 508.503 100.713 504.926 103.596C501.349 106.479 496.251 107.947 489.631 108H466.969ZM478.98 82.6152V98.3506H489.271C492.1 98.3506 494.302 97.6833 495.877 96.3486C497.479 94.9873 498.279 93.1188 498.279 90.7432C498.279 85.4046 495.517 82.6953 489.991 82.6152H478.98ZM478.98 74.127H487.869C493.928 74.0202 496.958 71.6045 496.958 66.8799C496.958 64.2373 496.184 62.3421 494.636 61.1943C493.114 60.0199 490.699 59.4326 487.389 59.4326H478.98V74.127ZM567.227 80.1729C567.227 85.9118 566.212 90.9434 564.184 95.2676C562.155 99.5918 559.245 102.928 555.455 105.277C551.691 107.626 547.367 108.801 542.482 108.801C537.651 108.801 533.34 107.64 529.55 105.317C525.759 102.995 522.823 99.6852 520.741 95.3877C518.659 91.0635 517.605 86.0986 517.578 80.4932V77.6104C517.578 71.8714 518.606 66.8265 520.661 62.4756C522.743 58.098 525.666 54.748 529.43 52.4258C533.22 50.0768 537.544 48.9023 542.402 48.9023C547.26 48.9023 551.571 50.0768 555.335 52.4258C559.125 54.748 562.048 58.098 564.104 62.4756C566.186 66.8265 567.227 71.8581 567.227 77.5703V80.1729ZM555.055 77.5303C555.055 71.4176 553.96 66.7731 551.771 63.5967C549.583 60.4202 546.46 58.832 542.402 58.832C538.372 58.832 535.262 60.4069 533.073 63.5566C530.884 66.6797 529.777 71.2708 529.75 77.3301V80.1729C529.75 86.1253 530.844 90.7432 533.033 94.0264C535.222 97.3096 538.372 98.9512 542.482 98.9512C546.513 98.9512 549.609 97.3763 551.771 94.2266C553.934 91.0501 555.028 86.4323 555.055 80.373V77.5303ZM623.842 80.1729C623.842 85.9118 622.827 90.9434 620.799 95.2676C618.77 99.5918 615.861 102.928 612.07 105.277C608.307 107.626 603.982 108.801 599.098 108.801C594.266 108.801 589.955 107.64 586.165 105.317C582.375 102.995 579.438 99.6852 577.356 95.3877C575.274 91.0635 574.22 86.0986 574.193 80.4932V77.6104C574.193 71.8714 575.221 66.8265 577.276 62.4756C579.358 58.098 582.281 54.748 586.045 52.4258C589.835 50.0768 594.16 48.9023 599.018 48.9023C603.876 48.9023 608.187 50.0768 611.95 52.4258C615.741 54.748 618.663 58.098 620.719 62.4756C622.801 66.8265 623.842 71.8581 623.842 77.5703V80.1729ZM611.67 77.5303C611.67 71.4176 610.576 66.7731 608.387 63.5967C606.198 60.4202 603.075 58.832 599.018 58.832C594.987 58.832 591.877 60.4069 589.688 63.5566C587.5 66.6797 586.392 71.2708 586.365 77.3301V80.1729C586.365 86.1253 587.46 90.7432 589.648 94.0264C591.837 97.3096 594.987 98.9512 599.098 98.9512C603.128 98.9512 606.225 97.3763 608.387 94.2266C610.549 91.0501 611.643 86.4323 611.67 80.373V77.5303ZM650.828 84.6172L644.582 91.3438V108H632.57V49.7031H644.582V76.1289L649.867 68.8818L664.722 49.7031H679.496L658.796 75.6084L680.097 108H665.803L650.828 84.6172Z" fill="white"/>
<ellipse cx="67.5" cy="66.5" rx="67.5" ry="66.5" fill="white"/>
<ellipse cx="157.5" cy="66.5" rx="67.5" ry="66.5" fill="#E34D4D"/>
</svg>
